# Blender v2.79 (sub 0) OBJ File: ''
# www.blender.org
o Mesh
v 0.493845 0.000000 -0.078217
v 0.475529 0.000000 -0.154509
v 0.475529 1.000000 -0.154509
v 0.493845 1.000000 -0.078217
v 0.445504 0.000000 -0.226995
v 0.445504 1.000000 -0.226995
v 0.404509 0.000000 -0.293893
v 0.404509 1.000000 -0.293893
v 0.353554 0.000000 -0.353554
v 0.353554 1.000000 -0.353554
v 0.293893 0.000000 -0.404509
v 0.293893 1.000000 -0.404509
v 0.226995 0.000000 -0.445504
v 0.226995 1.000000 -0.445504
v 0.154509 0.000000 -0.475529
v 0.154509 1.000000 -0.475529
v 0.078217 0.000000 -0.493845
v 0.078217 1.000000 -0.493845
v 0.000000 0.000000 -0.500000
v 0.000000 1.000000 -0.500000
v -0.078217 0.000000 -0.493845
v -0.078217 1.000000 -0.493845
v -0.154509 0.000000 -0.475529
v -0.154509 1.000000 -0.475529
v -0.226995 0.000000 -0.445504
v -0.226995 1.000000 -0.445504
v -0.293893 0.000000 -0.404509
v -0.293893 1.000000 -0.404509
v -0.353554 0.000000 -0.353554
v -0.353554 1.000000 -0.353554
v -0.404509 0.000000 -0.293893
v -0.404509 1.000000 -0.293893
v -0.445504 0.000000 -0.226995
v -0.445504 1.000000 -0.226995
v -0.475529 0.000000 -0.154509
v -0.475529 1.000000 -0.154509
v -0.493845 0.000000 -0.078217
v -0.493845 1.000000 -0.078217
v -0.500000 0.000000 0.000000
v -0.500000 1.000000 0.000000
v -0.493845 -0.000000 0.078217
v -0.493845 1.000000 0.078217
v -0.475529 -0.000000 0.154509
v -0.475529 1.000000 0.154509
v -0.445504 -0.000000 0.226995
v -0.445504 1.000000 0.226995
v -0.404509 -0.000000 0.293893
v -0.404509 1.000000 0.293893
v -0.353554 -0.000000 0.353554
v -0.353554 1.000000 0.353554
v -0.293893 -0.000000 0.404509
v -0.293893 1.000000 0.404509
v -0.226995 -0.000000 0.445504
v -0.226995 1.000000 0.445504
v -0.154509 -0.000000 0.475529
v -0.154509 1.000000 0.475529
v -0.078217 -0.000000 0.493845
v -0.078217 1.000000 0.493845
v 0.000000 -0.000000 0.500000
v 0.000000 1.000000 0.500000
v 0.078217 -0.000000 0.493845
v 0.078217 1.000000 0.493845
v 0.154509 -0.000000 0.475529
v 0.154509 1.000000 0.475529
v 0.226995 -0.000000 0.445504
v 0.226995 1.000000 0.445504
v 0.293893 -0.000000 0.404509
v 0.293893 1.000000 0.404509
v 0.353554 -0.000000 0.353554
v 0.353554 1.000000 0.353554
v 0.404509 -0.000000 0.293893
v 0.404509 1.000000 0.293893
v 0.445504 -0.000000 0.226995
v 0.445504 1.000000 0.226995
v 0.475529 -0.000000 0.154509
v 0.475529 1.000000 0.154509
v 0.493844 -0.000000 0.078217
v 0.493844 1.000000 0.078217
v 0.500000 0.000000 0.000000
v 0.500000 1.000000 0.000000
v 0.000000 0.000000 0.000000
v 0.000000 1.000000 0.000000
vt 1.100032 0.000000
vt 1.050032 1.000000
vt 1.050032 0.000000
vt 1.150032 0.000000
vt 1.100032 1.000000
vt 1.200032 0.000000
vt 1.150032 1.000000
vt 1.250032 0.000000
vt 1.200032 1.000000
vt 1.300032 0.000000
vt 1.250032 1.000000
vt 1.350032 0.000000
vt 1.300032 1.000000
vt 1.400032 0.000000
vt 1.350032 1.000000
vt 1.450032 0.000000
vt 1.400032 1.000000
vt 1.500032 1.000000
vt 1.450032 1.000000
vt -0.449968 0.000000
vt -0.499968 1.000000
vt -0.499968 0.000000
vt -0.399968 1.000000
vt -0.449968 1.000000
vt -0.349968 0.000000
vt -0.399968 0.000000
vt -0.299968 1.000000
vt -0.349968 1.000000
vt -0.299968 0.000000
vt -0.249968 1.000000
vt -0.199968 0.000000
vt -0.249968 0.000000
vt -0.149968 0.000000
vt -0.199968 1.000000
vt -0.099968 0.000000
vt -0.149968 1.000000
vt -0.049968 0.000000
vt -0.099968 1.000000
vt 0.000032 0.000000
vt -0.049968 1.000000
vt 0.050032 0.000000
vt 0.000032 1.000000
vt 0.100032 0.000000
vt 0.050032 1.000000
vt 0.150032 0.000000
vt 0.100032 1.000000
vt 0.200032 0.000000
vt 0.150032 1.000000
vt 0.250032 0.000000
vt 0.200032 1.000000
vt 0.300032 0.000000
vt 0.250032 1.000000
vt 0.350032 0.000000
vt 0.300032 1.000000
vt 0.400032 0.000000
vt 0.350032 1.000000
vt 0.450032 0.000000
vt 0.400032 1.000000
vt 0.500032 0.000000
vt 0.450032 1.000000
vt 0.550032 0.000000
vt 0.500032 1.000000
vt 0.600032 0.000000
vt 0.550032 1.000000
vt 0.650032 0.000000
vt 0.600032 1.000000
vt 0.700032 0.000000
vt 0.650032 1.000000
vt 0.750032 0.000000
vt 0.700032 1.000000
vt 0.800032 0.000000
vt 0.750032 1.000000
vt 0.850032 1.000000
vt 0.800032 1.000000
vt 0.900032 0.000000
vt 0.850032 0.000000
vt 0.950032 0.000000
vt 0.900032 1.000000
vt 1.000032 0.000000
vt 0.950032 1.000000
vt 1.000032 1.000000
vt 0.654508 0.975529
vt 0.578217 0.993845
vt 0.500000 0.500000
vt 0.726995 0.945504
vt 0.793892 0.904509
vt 0.853553 0.853554
vt 0.904508 0.793893
vt 0.945503 0.726995
vt 0.975528 0.654509
vt 0.993844 0.578217
vt 1.000000 0.500000
vt 0.993844 0.421783
vt 0.975528 0.345492
vt 0.945503 0.273005
vt 0.904508 0.206107
vt 0.853553 0.146447
vt 0.793893 0.095491
vt 0.726995 0.054497
vt 0.654508 0.024472
vt 0.578217 0.006156
vt 0.500000 -0.000000
vt 0.421783 0.006156
vt 0.345491 0.024472
vt 0.273005 0.054497
vt 0.206107 0.095491
vt 0.146447 0.146446
vt 0.095491 0.206107
vt 0.054497 0.273005
vt 0.024472 0.345491
vt 0.006156 0.421783
vt -0.000000 0.500000
vt 0.006156 0.578217
vt 0.024472 0.654508
vt 0.054497 0.726995
vt 0.095491 0.793893
vt 0.146447 0.853553
vt 0.206107 0.904509
vt 0.273005 0.945503
vt 0.345491 0.975528
vt 0.421783 0.993844
vt 0.500000 1.000000
vt 0.578217 0.993845
vt 0.654508 0.975529
vt 0.500000 0.500000
vt 0.726995 0.945504
vt 0.793892 0.904509
vt 0.853553 0.853554
vt 0.904508 0.793893
vt 0.945503 0.726995
vt 0.975528 0.654509
vt 0.993844 0.578217
vt 1.000000 0.500000
vt 0.993844 0.421783
vt 0.975528 0.345492
vt 0.945503 0.273005
vt 0.904508 0.206107
vt 0.853553 0.146447
vt 0.793893 0.095491
vt 0.726995 0.054497
vt 0.654508 0.024472
vt 0.578217 0.006156
vt 0.500000 -0.000000
vt 0.421783 0.006156
vt 0.345491 0.024472
vt 0.273005 0.054497
vt 0.206107 0.095491
vt 0.146447 0.146446
vt 0.095491 0.206107
vt 0.054497 0.273005
vt 0.024472 0.345491
vt 0.006156 0.421783
vt -0.000000 0.500000
vt 0.006156 0.578217
vt 0.024472 0.654508
vt 0.054497 0.726995
vt 0.095491 0.793893
vt 0.146447 0.853553
vt 0.206107 0.904509
vt 0.273005 0.945503
vt 0.345491 0.975528
vt 0.421783 0.993844
vt 0.500000 1.000000
vt 1.500032 0.000000
vn 0.9511 0.0000 -0.3090
vn 0.9877 0.0000 -0.1564
vn 0.8910 0.0000 -0.4540
vn 0.8090 0.0000 -0.5878
vn 0.7071 0.0000 -0.7071
vn 0.5878 0.0000 -0.8090
vn 0.4540 0.0000 -0.8910
vn 0.3090 0.0000 -0.9511
vn 0.1564 0.0000 -0.9877
vn 0.0000 0.0000 -1.0000
vn -0.1564 0.0000 -0.9877
vn -0.3090 0.0000 -0.9511
vn -0.4540 0.0000 -0.8910
vn -0.5878 0.0000 -0.8090
vn -0.7071 0.0000 -0.7071
vn -0.8090 0.0000 -0.5878
vn -0.8910 0.0000 -0.4540
vn -0.9511 0.0000 -0.3090
vn -0.9877 0.0000 -0.1564
vn -1.0000 0.0000 0.0000
vn -0.9877 -0.0000 0.1564
vn -0.9511 -0.0000 0.3090
vn -0.8910 -0.0000 0.4540
vn -0.8090 -0.0000 0.5878
vn -0.7071 -0.0000 0.7071
vn -0.5878 -0.0000 0.8090
vn -0.4540 -0.0000 0.8910
vn -0.3090 -0.0000 0.9511
vn -0.1564 -0.0000 0.9877
vn 0.0000 -0.0000 1.0000
vn 0.1564 -0.0000 0.9877
vn 0.3090 -0.0000 0.9511
vn 0.4540 -0.0000 0.8910
vn 0.5878 -0.0000 0.8090
vn 0.7071 -0.0000 0.7071
vn 0.8090 -0.0000 0.5878
vn 0.8910 -0.0000 0.4540
vn 0.9511 -0.0000 0.3090
vn 0.9877 -0.0000 0.1564
vn 1.0000 -0.0000 0.0000
vn 0.0000 -1.0000 -0.0000
vn 0.0000 1.0000 0.0000
s 1
f 2/1/1 4/2/2 1/3/2
f 5/4/3 3/5/1 2/1/1
f 7/6/4 6/7/3 5/4/3
f 9/8/5 8/9/4 7/6/4
f 11/10/6 10/11/5 9/8/5
f 13/12/7 12/13/6 11/10/6
f 15/14/8 14/15/7 13/12/7
f 17/16/9 16/17/8 15/14/8
f 17/16/9 20/18/10 18/19/9
f 21/20/11 20/21/10 19/22/10
f 21/20/11 24/23/12 22/24/11
f 25/25/13 24/23/12 23/26/12
f 25/25/13 28/27/14 26/28/13
f 27/29/14 30/30/15 28/27/14
f 31/31/16 30/30/15 29/32/15
f 33/33/17 32/34/16 31/31/16
f 35/35/18 34/36/17 33/33/17
f 37/37/19 36/38/18 35/35/18
f 39/39/20 38/40/19 37/37/19
f 41/41/21 40/42/20 39/39/20
f 43/43/22 42/44/21 41/41/21
f 45/45/23 44/46/22 43/43/22
f 47/47/24 46/48/23 45/45/23
f 49/49/25 48/50/24 47/47/24
f 51/51/26 50/52/25 49/49/25
f 53/53/27 52/54/26 51/51/26
f 55/55/28 54/56/27 53/53/27
f 57/57/29 56/58/28 55/55/28
f 59/59/30 58/60/29 57/57/29
f 61/61/31 60/62/30 59/59/30
f 63/63/32 62/64/31 61/61/31
f 65/65/33 64/66/32 63/63/32
f 67/67/34 66/68/33 65/65/33
f 69/69/35 68/70/34 67/67/34
f 71/71/36 70/72/35 69/69/35
f 71/71/36 74/73/37 72/74/36
f 75/75/38 74/73/37 73/76/37
f 77/77/39 76/78/38 75/75/38
f 79/79/40 78/80/39 77/77/39
f 1/3/2 80/81/40 79/79/40
f 2/82/41 1/83/41 81/84/41
f 5/85/41 2/82/41 81/84/41
f 7/86/41 5/85/41 81/84/41
f 9/87/41 7/86/41 81/84/41
f 11/88/41 9/87/41 81/84/41
f 13/89/41 11/88/41 81/84/41
f 15/90/41 13/89/41 81/84/41
f 17/91/41 15/90/41 81/84/41
f 19/92/41 17/91/41 81/84/41
f 21/93/41 19/92/41 81/84/41
f 23/94/41 21/93/41 81/84/41
f 25/95/41 23/94/41 81/84/41
f 27/96/41 25/95/41 81/84/41
f 29/97/41 27/96/41 81/84/41
f 31/98/41 29/97/41 81/84/41
f 33/99/41 31/98/41 81/84/41
f 35/100/41 33/99/41 81/84/41
f 37/101/41 35/100/41 81/84/41
f 39/102/41 37/101/41 81/84/41
f 41/103/41 39/102/41 81/84/41
f 43/104/41 41/103/41 81/84/41
f 45/105/41 43/104/41 81/84/41
f 47/106/41 45/105/41 81/84/41
f 49/107/41 47/106/41 81/84/41
f 51/108/41 49/107/41 81/84/41
f 53/109/41 51/108/41 81/84/41
f 55/110/41 53/109/41 81/84/41
f 57/111/41 55/110/41 81/84/41
f 59/112/41 57/111/41 81/84/41
f 61/113/41 59/112/41 81/84/41
f 63/114/41 61/113/41 81/84/41
f 65/115/41 63/114/41 81/84/41
f 67/116/41 65/115/41 81/84/41
f 69/117/41 67/116/41 81/84/41
f 71/118/41 69/117/41 81/84/41
f 73/119/41 71/118/41 81/84/41
f 75/120/41 73/119/41 81/84/41
f 77/121/41 75/120/41 81/84/41
f 79/122/41 77/121/41 81/84/41
f 1/83/41 79/122/41 81/84/41
f 4/123/42 3/124/42 82/125/42
f 3/124/42 6/126/42 82/125/42
f 6/126/42 8/127/42 82/125/42
f 8/127/42 10/128/42 82/125/42
f 10/128/42 12/129/42 82/125/42
f 12/129/42 14/130/42 82/125/42
f 14/130/42 16/131/42 82/125/42
f 16/131/42 18/132/42 82/125/42
f 18/132/42 20/133/42 82/125/42
f 20/133/42 22/134/42 82/125/42
f 22/134/42 24/135/42 82/125/42
f 24/135/42 26/136/42 82/125/42
f 26/136/42 28/137/42 82/125/42
f 28/137/42 30/138/42 82/125/42
f 30/138/42 32/139/42 82/125/42
f 32/139/42 34/140/42 82/125/42
f 34/140/42 36/141/42 82/125/42
f 36/141/42 38/142/42 82/125/42
f 38/142/42 40/143/42 82/125/42
f 40/143/42 42/144/42 82/125/42
f 42/144/42 44/145/42 82/125/42
f 44/145/42 46/146/42 82/125/42
f 46/146/42 48/147/42 82/125/42
f 48/147/42 50/148/42 82/125/42
f 50/148/42 52/149/42 82/125/42
f 52/149/42 54/150/42 82/125/42
f 54/150/42 56/151/42 82/125/42
f 56/151/42 58/152/42 82/125/42
f 58/152/42 60/153/42 82/125/42
f 60/153/42 62/154/42 82/125/42
f 62/154/42 64/155/42 82/125/42
f 64/155/42 66/156/42 82/125/42
f 66/156/42 68/157/42 82/125/42
f 68/157/42 70/158/42 82/125/42
f 70/158/42 72/159/42 82/125/42
f 72/159/42 74/160/42 82/125/42
f 74/160/42 76/161/42 82/125/42
f 76/161/42 78/162/42 82/125/42
f 78/162/42 80/163/42 82/125/42
f 80/163/42 4/123/42 82/125/42
f 2/1/1 3/5/1 4/2/2
f 5/4/3 6/7/3 3/5/1
f 7/6/4 8/9/4 6/7/3
f 9/8/5 10/11/5 8/9/4
f 11/10/6 12/13/6 10/11/5
f 13/12/7 14/15/7 12/13/6
f 15/14/8 16/17/8 14/15/7
f 17/16/9 18/19/9 16/17/8
f 17/16/9 19/164/10 20/18/10
f 21/20/11 22/24/11 20/21/10
f 21/20/11 23/26/12 24/23/12
f 25/25/13 26/28/13 24/23/12
f 25/25/13 27/29/14 28/27/14
f 27/29/14 29/32/15 30/30/15
f 31/31/16 32/34/16 30/30/15
f 33/33/17 34/36/17 32/34/16
f 35/35/18 36/38/18 34/36/17
f 37/37/19 38/40/19 36/38/18
f 39/39/20 40/42/20 38/40/19
f 41/41/21 42/44/21 40/42/20
f 43/43/22 44/46/22 42/44/21
f 45/45/23 46/48/23 44/46/22
f 47/47/24 48/50/24 46/48/23
f 49/49/25 50/52/25 48/50/24
f 51/51/26 52/54/26 50/52/25
f 53/53/27 54/56/27 52/54/26
f 55/55/28 56/58/28 54/56/27
f 57/57/29 58/60/29 56/58/28
f 59/59/30 60/62/30 58/60/29
f 61/61/31 62/64/31 60/62/30
f 63/63/32 64/66/32 62/64/31
f 65/65/33 66/68/33 64/66/32
f 67/67/34 68/70/34 66/68/33
f 69/69/35 70/72/35 68/70/34
f 71/71/36 72/74/36 70/72/35
f 71/71/36 73/76/37 74/73/37
f 75/75/38 76/78/38 74/73/37
f 77/77/39 78/80/39 76/78/38
f 79/79/40 80/81/40 78/80/39
f 1/3/2 4/2/2 80/81/40
