# Blender v2.79 (sub 0) OBJ File: ''
# www.blender.org
o pipe
v 0.285317 0.000000 -0.092705
v 0.300000 0.000000 0.000000
v 0.285317 1.000000 -0.092705
v 0.300000 1.000000 0.000000
v 0.242705 0.000000 -0.176336
v 0.242705 1.000000 -0.176336
v 0.176336 0.000000 -0.242705
v 0.176336 1.000000 -0.242705
v 0.092705 0.000000 -0.285317
v 0.092705 1.000000 -0.285317
v 0.000000 0.000000 -0.300000
v 0.000000 1.000000 -0.300000
v -0.092705 0.000000 -0.285317
v -0.092705 1.000000 -0.285317
v -0.176336 0.000000 -0.242705
v -0.176336 1.000000 -0.242705
v -0.242705 0.000000 -0.176336
v -0.242705 1.000000 -0.176336
v -0.285317 0.000000 -0.092705
v -0.285317 1.000000 -0.092705
v -0.300000 0.000000 0.000000
v -0.300000 1.000000 0.000000
v -0.285317 -0.000000 0.092705
v -0.285317 1.000000 0.092705
v -0.242705 -0.000000 0.176336
v -0.242705 1.000000 0.176336
v -0.176336 -0.000000 0.242705
v -0.176336 1.000000 0.242705
v -0.092705 -0.000000 0.285317
v -0.092705 1.000000 0.285317
v 0.000000 -0.000000 0.300000
v 0.000000 1.000000 0.300000
v 0.092705 -0.000000 0.285317
v 0.092705 1.000000 0.285317
v 0.176336 -0.000000 0.242705
v 0.176336 1.000000 0.242705
v 0.242705 -0.000000 0.176336
v 0.242705 1.000000 0.176336
v 0.285317 -0.000000 0.092705
v 0.285317 1.000000 0.092705
v 0.475528 1.000000 -0.154509
v 0.500000 1.000000 0.000000
v 0.404509 1.000000 -0.293893
v 0.293893 1.000000 -0.404509
v 0.154508 1.000000 -0.475528
v 0.000000 1.000000 -0.500000
v -0.154509 1.000000 -0.475528
v -0.293893 1.000000 -0.404509
v -0.404509 1.000000 -0.293893
v -0.475528 1.000000 -0.154509
v -0.500000 1.000000 0.000000
v -0.475528 1.000000 0.154509
v -0.404509 1.000000 0.293893
v -0.293893 1.000000 0.404509
v -0.154509 1.000000 0.475528
v 0.000000 1.000000 0.500000
v 0.154509 1.000000 0.475529
v 0.293893 1.000000 0.404509
v 0.404509 1.000000 0.293893
v 0.475529 1.000000 0.154509
v 0.475528 0.000000 -0.154509
v 0.500000 0.000000 0.000000
v 0.404509 0.000000 -0.293893
v 0.293893 0.000000 -0.404509
v 0.154508 0.000000 -0.475528
v 0.000000 0.000000 -0.500000
v -0.154509 0.000000 -0.475528
v -0.293893 0.000000 -0.404509
v -0.404509 0.000000 -0.293893
v -0.475528 0.000000 -0.154509
v -0.500000 0.000000 0.000000
v -0.475528 -0.000000 0.154509
v -0.404509 -0.000000 0.293893
v -0.293893 -0.000000 0.404509
v -0.154509 -0.000000 0.475528
v 0.000000 -0.000000 0.500000
v 0.154509 -0.000000 0.475529
v 0.293893 -0.000000 0.404509
v 0.404509 -0.000000 0.293893
v 0.475529 -0.000000 0.154509
vt 0.050000 1.000000
vt 0.000000 1.000000
vt 0.050000 0.750000
vt 0.000000 0.750000
vt 0.100000 1.000000
vt 0.100000 0.750000
vt 0.150000 1.000000
vt 0.150000 0.750000
vt 0.200000 1.000000
vt 0.200000 0.750000
vt 0.250000 1.000000
vt 0.250000 0.750000
vt 0.300000 1.000000
vt 0.300000 0.750000
vt 0.350000 1.000000
vt 0.350000 0.750000
vt 0.400000 1.000000
vt 0.400000 0.750000
vt 0.450000 1.000000
vt 0.450000 0.750000
vt 0.500000 1.000000
vt 0.500000 0.750000
vt 0.550000 1.000000
vt 0.550000 0.750000
vt 0.600000 1.000000
vt 0.600000 0.750000
vt 0.650000 1.000000
vt 0.650000 0.750000
vt 0.700000 1.000000
vt 0.700000 0.750000
vt 0.750000 1.000000
vt 0.750000 0.750000
vt 0.800000 1.000000
vt 0.800000 0.750000
vt 0.850000 1.000000
vt 0.850000 0.750000
vt 0.900000 1.000000
vt 0.900000 0.750000
vt 0.950000 1.000000
vt 0.950000 0.750000
vt 1.000000 1.000000
vt 1.000000 0.750000
vt 0.050000 0.500000
vt 0.000000 0.500000
vt 0.100000 0.500000
vt 0.150000 0.500000
vt 0.200000 0.500000
vt 0.250000 0.500000
vt 0.300000 0.500000
vt 0.350000 0.500000
vt 0.400000 0.500000
vt 0.450000 0.500000
vt 0.500000 0.500000
vt 0.550000 0.500000
vt 0.600000 0.500000
vt 0.650000 0.500000
vt 0.700000 0.500000
vt 0.750000 0.500000
vt 0.800000 0.500000
vt 0.850000 0.500000
vt 0.900000 0.500000
vt 0.950000 0.500000
vt 1.000000 0.500000
vt 0.050000 0.250000
vt 0.000000 0.250000
vt 0.100000 0.250000
vt 0.150000 0.250000
vt 0.200000 0.250000
vt 0.250000 0.250000
vt 0.300000 0.250000
vt 0.350000 0.250000
vt 0.400000 0.250000
vt 0.450000 0.250000
vt 0.500000 0.250000
vt 0.550000 0.250000
vt 0.600000 0.250000
vt 0.650000 0.250000
vt 0.700000 0.250000
vt 0.750000 0.250000
vt 0.800000 0.250000
vt 0.850000 0.250000
vt 0.900000 0.250000
vt 0.950000 0.250000
vt 1.000000 0.250000
vt 0.050000 0.000000
vt 0.000000 0.000000
vt 0.100000 0.000000
vt 0.150000 0.000000
vt 0.200000 0.000000
vt 0.250000 0.000000
vt 0.300000 0.000000
vt 0.350000 0.000000
vt 0.400000 0.000000
vt 0.450000 0.000000
vt 0.500000 0.000000
vt 0.550000 0.000000
vt 0.600000 0.000000
vt 0.650000 0.000000
vt 0.700000 0.000000
vt 0.750000 0.000000
vt 0.800000 0.000000
vt 0.850000 0.000000
vt 0.900000 0.000000
vt 0.950000 0.000000
vt 1.000000 0.000000
vn -0.9334 -0.0000 0.3587
vn -0.9986 -0.0000 0.0527
vn -0.9660 -0.0000 0.2584
vn -0.9986 0.0000 -0.0527
vn -0.7769 -0.0000 0.6296
vn -0.8389 -0.0000 0.5443
vn -0.5443 -0.0000 0.8389
vn -0.6296 -0.0000 0.7769
vn -0.2584 -0.0000 0.9660
vn -0.3587 -0.0000 0.9334
vn 0.0527 -0.0000 0.9986
vn -0.0527 -0.0000 0.9986
vn 0.3587 -0.0000 0.9334
vn 0.2584 -0.0000 0.9660
vn 0.6296 -0.0000 0.7769
vn 0.5443 -0.0000 0.8389
vn 0.8389 -0.0000 0.5443
vn 0.7769 -0.0000 0.6296
vn 0.9660 -0.0000 0.2584
vn 0.9334 -0.0000 0.3587
vn 0.9986 0.0000 -0.0527
vn 0.9986 -0.0000 0.0527
vn 0.9334 0.0000 -0.3587
vn 0.9660 0.0000 -0.2584
vn 0.7769 0.0000 -0.6296
vn 0.8389 0.0000 -0.5443
vn 0.5443 0.0000 -0.8389
vn 0.6296 0.0000 -0.7769
vn 0.2584 0.0000 -0.9660
vn 0.3587 0.0000 -0.9334
vn -0.0527 0.0000 -0.9986
vn 0.0527 0.0000 -0.9986
vn -0.3587 0.0000 -0.9334
vn -0.2584 0.0000 -0.9660
vn -0.6296 0.0000 -0.7769
vn -0.5443 0.0000 -0.8389
vn -0.8389 0.0000 -0.5443
vn -0.7769 0.0000 -0.6296
vn -0.9660 0.0000 -0.2584
vn -0.9334 0.0000 -0.3587
vn 0.0000 1.0000 0.0000
vn 0.0000 -1.0000 -0.0000
s 1
f 1/1/1 2/2/2 3/3/3
f 3/3/3 2/2/2 4/4/4
f 5/5/5 1/1/1 6/6/6
f 6/6/6 1/1/1 3/3/3
f 7/7/7 5/5/5 8/8/8
f 8/8/8 5/5/5 6/6/6
f 9/9/9 7/7/7 10/10/10
f 10/10/10 7/7/7 8/8/8
f 11/11/11 9/9/9 12/12/12
f 12/12/12 9/9/9 10/10/10
f 13/13/13 11/11/11 14/14/14
f 14/14/14 11/11/11 12/12/12
f 15/15/15 13/13/13 16/16/16
f 16/16/16 13/13/13 14/14/14
f 17/17/17 15/15/15 18/18/18
f 18/18/18 15/15/15 16/16/16
f 19/19/19 17/17/17 20/20/20
f 20/20/20 17/17/17 18/18/18
f 21/21/21 19/19/19 22/22/22
f 22/22/22 19/19/19 20/20/20
f 23/23/23 21/21/21 24/24/24
f 24/24/24 21/21/21 22/22/22
f 25/25/25 23/23/23 26/26/26
f 26/26/26 23/23/23 24/24/24
f 27/27/27 25/25/25 28/28/28
f 28/28/28 25/25/25 26/26/26
f 29/29/29 27/27/27 30/30/30
f 30/30/30 27/27/27 28/28/28
f 31/31/31 29/29/29 32/32/32
f 32/32/32 29/29/29 30/30/30
f 33/33/33 31/31/31 34/34/34
f 34/34/34 31/31/31 32/32/32
f 35/35/35 33/33/33 36/36/36
f 36/36/36 33/33/33 34/34/34
f 37/37/37 35/35/35 38/38/38
f 38/38/38 35/35/35 36/36/36
f 39/39/39 37/37/37 40/40/40
f 40/40/40 37/37/37 38/38/38
f 2/41/2 39/39/39 4/42/4
f 4/42/4 39/39/39 40/40/40
f 3/3/41 4/4/41 41/43/41
f 41/43/41 4/4/41 42/44/41
f 6/6/41 3/3/41 43/45/41
f 43/45/41 3/3/41 41/43/41
f 8/8/41 6/6/41 44/46/41
f 44/46/41 6/6/41 43/45/41
f 10/10/41 8/8/41 45/47/41
f 45/47/41 8/8/41 44/46/41
f 12/12/41 10/10/41 46/48/41
f 46/48/41 10/10/41 45/47/41
f 14/14/41 12/12/41 47/49/41
f 47/49/41 12/12/41 46/48/41
f 16/16/41 14/14/41 48/50/41
f 48/50/41 14/14/41 47/49/41
f 18/18/41 16/16/41 49/51/41
f 49/51/41 16/16/41 48/50/41
f 20/20/41 18/18/41 50/52/41
f 50/52/41 18/18/41 49/51/41
f 22/22/41 20/20/41 51/53/41
f 51/53/41 20/20/41 50/52/41
f 24/24/41 22/22/41 52/54/41
f 52/54/41 22/22/41 51/53/41
f 26/26/41 24/24/41 53/55/41
f 53/55/41 24/24/41 52/54/41
f 28/28/41 26/26/41 54/56/41
f 54/56/41 26/26/41 53/55/41
f 30/30/41 28/28/41 55/57/41
f 55/57/41 28/28/41 54/56/41
f 32/32/41 30/30/41 56/58/41
f 56/58/41 30/30/41 55/57/41
f 34/34/41 32/32/41 57/59/41
f 57/59/41 32/32/41 56/58/41
f 36/36/41 34/34/41 58/60/41
f 58/60/41 34/34/41 57/59/41
f 38/38/41 36/36/41 59/61/41
f 59/61/41 36/36/41 58/60/41
f 40/40/41 38/38/41 60/62/41
f 60/62/41 38/38/41 59/61/41
f 4/42/41 40/40/41 42/63/41
f 42/63/41 40/40/41 60/62/41
f 41/43/23 42/44/21 61/64/24
f 61/64/24 42/44/21 62/65/22
f 43/45/25 41/43/23 63/66/26
f 63/66/26 41/43/23 61/64/24
f 44/46/27 43/45/25 64/67/28
f 64/67/28 43/45/25 63/66/26
f 45/47/29 44/46/27 65/68/30
f 65/68/30 44/46/27 64/67/28
f 46/48/31 45/47/29 66/69/32
f 66/69/32 45/47/29 65/68/30
f 47/49/33 46/48/31 67/70/34
f 67/70/34 46/48/31 66/69/32
f 48/50/35 47/49/33 68/71/36
f 68/71/36 47/49/33 67/70/34
f 49/51/37 48/50/35 69/72/38
f 69/72/38 48/50/35 68/71/36
f 50/52/39 49/51/37 70/73/40
f 70/73/40 49/51/37 69/72/38
f 51/53/2 50/52/39 71/74/4
f 71/74/4 50/52/39 70/73/40
f 52/54/1 51/53/2 72/75/3
f 72/75/3 51/53/2 71/74/4
f 53/55/5 52/54/1 73/76/6
f 73/76/6 52/54/1 72/75/3
f 54/56/7 53/55/5 74/77/8
f 74/77/8 53/55/5 73/76/6
f 55/57/9 54/56/7 75/78/10
f 75/78/10 54/56/7 74/77/8
f 56/58/11 55/57/9 76/79/12
f 76/79/12 55/57/9 75/78/10
f 57/59/13 56/58/11 77/80/14
f 77/80/14 56/58/11 76/79/12
f 58/60/15 57/59/13 78/81/16
f 78/81/16 57/59/13 77/80/14
f 59/61/17 58/60/15 79/82/18
f 79/82/18 58/60/15 78/81/16
f 60/62/19 59/61/17 80/83/20
f 80/83/20 59/61/17 79/82/18
f 42/63/21 60/62/19 62/84/22
f 62/84/22 60/62/19 80/83/20
f 61/64/42 62/65/42 1/85/42
f 1/85/42 62/65/42 2/86/42
f 63/66/42 61/64/42 5/87/42
f 5/87/42 61/64/42 1/85/42
f 64/67/42 63/66/42 7/88/42
f 7/88/42 63/66/42 5/87/42
f 65/68/42 64/67/42 9/89/42
f 9/89/42 64/67/42 7/88/42
f 66/69/42 65/68/42 11/90/42
f 11/90/42 65/68/42 9/89/42
f 67/70/42 66/69/42 13/91/42
f 13/91/42 66/69/42 11/90/42
f 68/71/42 67/70/42 15/92/42
f 15/92/42 67/70/42 13/91/42
f 69/72/42 68/71/42 17/93/42
f 17/93/42 68/71/42 15/92/42
f 70/73/42 69/72/42 19/94/42
f 19/94/42 69/72/42 17/93/42
f 71/74/42 70/73/42 21/95/42
f 21/95/42 70/73/42 19/94/42
f 72/75/42 71/74/42 23/96/42
f 23/96/42 71/74/42 21/95/42
f 73/76/42 72/75/42 25/97/42
f 25/97/42 72/75/42 23/96/42
f 74/77/42 73/76/42 27/98/42
f 27/98/42 73/76/42 25/97/42
f 75/78/42 74/77/42 29/99/42
f 29/99/42 74/77/42 27/98/42
f 76/79/42 75/78/42 31/100/42
f 31/100/42 75/78/42 29/99/42
f 77/80/42 76/79/42 33/101/42
f 33/101/42 76/79/42 31/100/42
f 78/81/42 77/80/42 35/102/42
f 35/102/42 77/80/42 33/101/42
f 79/82/42 78/81/42 37/103/42
f 37/103/42 78/81/42 35/102/42
f 80/83/42 79/82/42 39/104/42
f 39/104/42 79/82/42 37/103/42
f 62/84/42 80/83/42 2/105/42
f 2/105/42 80/83/42 39/104/42
